<?xml version="1.0" encoding="UTF-8"?>
<svg id="_Слой_1" data-name="Слой 1" xmlns="http://www.w3.org/2000/svg" version="1.1" viewBox="0 0 1364 1110">
  <defs>
    <style>
      .cls-1 {
        fill: #fff;
        stroke-width: 0px;
      }
    </style>
  </defs>
  <path class="cls-1" d="M1171.6,883.9c-.7-1.9-3-6.4-5.1-10l-3.9-6.4,2.8-3c10.3-10.8,13.1-31.8,6.1-46-4.1-8.2-13.8-17.4-21.8-20.6-5.5-2.3-7.2-2.4-32.9-2.7l-27.1-.3-.6,43.7c-.4,24.1-.7,57.2-.7,73.6v29.8h27v-63h8.3c9.7,0,15.1,2.1,19,7.1,4.1,5.5,4.7,9.9,4.7,33.6v22.3h26.1l-.4-27.3c-.2-17.3-.8-28.5-1.5-30.8ZM1140.4,850.7c-3.7,2-5.8,2.3-14.7,2.3h-10.3v-32h10.6c12.1,0,16,1.3,20.1,6.6,5.7,7.6,3,18.5-5.7,23.1Z"/>
  <path class="cls-1" d="M1046.1,931.2l-6.8-6.9,2.6-7.7,2.6-7.7-.6-85.4-3.1-6.6c-5.1-10.7-13.7-18.6-24-22.3-6.5-2.2-16.1-2.7-23.3-1.1-12.4,2.8-22.2,10.9-28.4,23.4l-3.2,6.6-.8,37c-1,42.5-.4,50.6,4.3,60.1,3.8,7.9,11.7,15.6,19.7,19.6,7.6,3.7,18.9,4.9,28,2.8l5.6-1.2,7.1,7.1c3.9,3.9,7.6,7.1,8.1,7.1s5.1-4,10-9l9-9-6.8-6.8ZM1016.2,909c-2.9,5.5-6.4,8.1-11.9,8.7-6.1.5-11.7-2.7-14.6-8.7-2.3-4.3-2.3-5.1-2.3-40.7s0-40.5,6.4-46.1c3.2-2.8,4.4-3.2,9.1-3.2s5.9.4,9.4,3.5c2.6,2.4,4.2,4.9,5,8,.7,2.8,1.1,16.9,1.1,39.2,0,34.2,0,35-2.2,39.3Z"/>
  <path class="cls-1" d="M246.4,853v-8.8c0-12.4-1.2-16.7-5.1-20.8-7.6-7.8-19.5-5.9-24,3.9-2.3,5.2-2.4,8.9-.3,15,2.1,6.1,5.2,8.6,23.1,18.3,16.5,8.9,25.1,16.2,29.4,24.9,2.1,4.4,2.4,6.3,2.4,16.5s0,11.8-3.3,18.3c-4.3,8.6-11.3,15.6-19.9,19.9-6.4,3.1-7.3,3.3-17.8,3.3s-11.4-.2-17.8-3.3c-14-6.9-22-18.7-23.9-35.3-.6-5.2-.8-10.7-.4-12.2l.7-2.8,25.4.6.5,8.6c.5,7.5.9,9.1,3.4,12.4,5,6.5,12,8.1,18.8,4.3,6.7-3.8,10.1-11.8,7.5-18-2-4.8-5.6-7.5-21.8-16.5-16.3-8.9-24.2-15.5-28.6-24-6.5-12.3-7.1-28.6-1.6-40.5,5.1-10.8,11.1-16.4,23.2-21.5,4.9-2.1,6.9-2.3,15.6-2,8.2.2,11,.7,15.5,2.9,11.3,5.2,19.6,14.5,23,25.5,1.5,5,2,9.3,2,18.9v12.4h-26Z"/>
  <polygon class="cls-1" points="387.5 795 387.2 807.7 386.9 820.5 358.9 821.5 358.9 941.5 345.7 941.8 332.4 942.1 332.4 821 304.4 821 304.4 795 387.5 795"/>
  <path class="cls-1" d="M501.4,826.9c-3.2-17.2-17.2-31.1-34.1-33.9-3.5-.5-7.1-.9-7.9-.9-20.7,1.5-36.7,15.9-39.9,35.9-1.4,8.4-1.4,75,0,82.1,2.4,12.7,11.6,24.5,23.7,30.2,6.4,3,7.5,3.2,17.8,3.2s11.6-.3,16.5-2.6c7.1-3.3,15.8-11.4,19.3-17.6,5.3-9.9,5.7-13.5,5.7-53.9s-.4-39.5-1-42.5ZM469.4,914.3c-7.6,6.5-19.3,3.1-22.9-6.6-.7-1.8-1.1-16.2-1.1-40,0-41.6,0-41.7,7.1-46.5,4.6-3.2,13.6-2.8,17.5.9,5.1,4.7,5.3,5.8,5.5,46,.2,41.3.2,40.9-6.1,46.2Z"/>
  <path class="cls-1" d="M621.4,872.7l-3-4.7,3.7-4.8c7.3-9.6,10.6-22.3,8.5-33.4-2.6-14-11.1-25-24-31.1l-6.7-3.2-27.7-.3-27.8-.3v147.1h26v-14.8c0-8.2.3-22.4.7-31.7l.6-16.7,9.2.4c10.4.4,14.2,2.2,18.6,8.6,2.4,3.5,2.4,4,2.7,28.9l.3,25.3h27.1l-.4-26.8c-.5-29.4-.9-31.6-7.8-42.5ZM597.1,850.4c-2.4,1.8-4.6,2.2-14.3,2.4l-11.4.4v-32.2h10.5c11.9,0,14.4.8,19.4,6.5,2.6,3,3.1,4.3,3.1,8.9s-2.3,10.3-7.3,14Z"/>
  <path class="cls-1" d="M743.5,942h-35c-19.2,0-35.2-.3-35.4-.8-.3-.4-.2-33.4,0-73.5l.5-72.7h69.7v26h-44v32h44v26h-44v36l21.8.2,21.7.3.3,13.2.3,13.3Z"/>
  <path class="cls-1" d="M808.4,834.7c0,10.6,3.6,14.8,20.7,23.9,20.7,11,27.6,16.7,32.3,26.7,5.3,10.9,4.6,26.4-1.7,37.8-3.5,6.4-12.2,14.5-19.3,17.8-4.9,2.3-6.7,2.6-17,2.6s-12.1-.3-17-2.6c-7.8-3.6-16.3-11.8-19.9-19-3.8-7.6-5.3-14.8-4.9-24l.3-7.4,11.9-.3c7.8-.2,12.3,0,13.2.9,1,.8,1.4,3.4,1.4,8.3,0,9.1,2,13.3,8.1,16.4,7.4,3.9,14.5,1.8,19.7-5.8,2.9-4.4,2.9-10.3,0-14.6-2.5-3.6-6.4-6.3-24.2-16.2-14.4-8-21.4-14.5-25.6-23.4-8-17.2-5.4-37,6.6-49.9,9.3-9.8,17.3-13,31.9-12.6,8.6.3,10.8.7,16,3.2,7.7,3.7,16.3,12.3,19.9,19.8,3.1,6.5,4.9,18.5,4.4,29.2l-.3,7h-26l-.5-12c-.4-10.5-.8-12.4-2.8-15.3-9-12.5-27.2-6.1-27.2,9.5Z"/>
  <polygon class="cls-1" points="950.4 487 950.4 687 684.4 687 684.4 620 784.2 619.8 883.9 619.5 884.2 553.2 884.4 487 950.4 487"/>
  <path class="cls-1" d="M751.4,553h-65.4c-36,0-66.1.3-67,.6-1.4.6-1.6,7.4-1.6,67v66.4h-199v-266h66v199h67v-199h66l.2,32.7.3,32.8,133,1,.3,32.7.2,32.8Z"/>
  <path class="cls-1" d="M950.4,154l-.2,133.2-.3,133.3-99.2.3-99.3.2-.2-33.2-.3-33.3-99.7-.3-99.8-.2v-133h-67v133h-66v-200h266v67h-67v32.9c0,29.1.2,33,1.6,33.5.9.3,45.8.6,100,.6h98.4l.2,32.7.3,32.8h66l.3-66.3.2-66.2h-133v-67h199Z"/>
</svg>